<svg xmlns="http://www.w3.org/2000/svg" viewBox="0 0 333333 333333" shape-rendering="geometricPrecision" text-rendering="geometricPrecision" image-rendering="optimizeQuality" fill-rule="evenodd" clip-rule="evenodd"><path d="M173161 80365c4170 0 7552 3381 7552 7552 0 4170-3381 7551-7552 7551-4170 0-7551-3381-7551-7551s3381-7552 7551-7552zm11709 241201l150-2h845c1309-18 1553-174 2556-818l982-620c12938-8159 19107-20236 20524-35058 1506-15739-2176-34635-8839-55342l5-2c-26-82-50-164-73-247l-16702-60707c-1617 716-3233 1395-4852 2038-6364 2651-12952 4646-19641 6020-7225 1558-14469 2398-21730 2512-15520 244-31046-2815-46577-9231l-9907 38943c-1892 7440-3470 14017-4786 19967-1389 6281-2633 12428-3783 18675-562 3052-891 4750-1219 6447-3595 18586-7424 38380 2958 53979 2963 4452 6784 7731 11399 9918 4715 2233 10304 3388 16702 3543 128-8 256-13 385-13h7567v-63144c0-3200 2594-5794 5794-5794s5794 2594 5794 5794v63144h31167v-63144c0-3200 2594-5794 5794-5794s5794 2594 5794 5794v63144h19693zM65811 3633l21941 20896c16272-6561 32682-10100 49244-10243 16596-144 33258 3139 49990 10222l24537-22954c2325-2175 5973-2053 8147 272 1035 1106 1549 2511 1554 3915h8l285 48985c6663 11675 10631 22552 12284 32744l9836-3191c3037-987 6300 674 7287 3711s-675 6300-3712 7287l-12513 4060c-4 265-8 530-15 793-224 8646-2163 16709-5548 24280l7928 1060c3162 413 5391 3311 4979 6473-413 3162-3311 5391-6473 4979l-12458-1666c-792 1187-1620 2361-2484 3524-7408 9968-16243 17963-25957 24124l17413 63291h0c7106 22083 11008 42485 9337 59959-1331 13919-6107 25926-15432 35410h28663v23c18942 0 33627 0 48020-13944 8354-8094 11854-18435 11546-28744-168-5633-1483-11300-3773-16631-2296-5345-5551-10289-9591-14459-7924-8179-18917-13476-31682-13095-3187 87-5842-2426-5930-5613-87-3187 2425-5842 5613-5930 16276-486 30247 6222 40282 16580 5065 5227 9118 11362 11946 17945 2834 6597 4464 13712 4678 20886 399 13376-4157 26809-15031 37344-17757 17203-34491 17203-56077 17203v23h-48554l-537 2h-24744c-459 117-939 179-1434 179-494 0-975-62-1434-179h-39887c-458 117-939 179-1434 179s-976-62-1434-179h-11926c-211 0-419-12-625-34-8056-190-15213-1697-21396-4628-6535-3096-11933-7722-16106-13992-12998-19528-8707-41706-4678-62533 504-2605 1002-5181 1219-6357 1150-6241 2422-12519 3874-19082 1526-6896 3117-13588 4831-20330l10607-41694c-11720-6872-21637-16027-28567-27172-378-608-746-1223-1107-1843l-9352 1162c-3174 387-6063-1872-6450-5046-387-3175 1872-6063 5046-6450l5561-691c-2919-7925-4457-16570-4315-25857l-10263-3330c-3037-987-4698-4250-3712-7287 987-3037 4250-4698 7287-3711l7743 2512c1623-10059 5148-20759 10902-32014l2290-47228c150-3187 2856-5649 6043-5499 1444 68 2739 660 3711 1585l1-1zm16709 31874L66987 20714l-1738 35847h-6c-38 813-249 1630-650 2399-5859 11201-9238 21718-10548 31458l36304 11780c3037 987 4698 4250 3711 7287s-4250 4698-7287 3711l-33310-10808c306 7437 1891 14322 4529 20603l29868-3711c3175-387 6063 1872 6450 5047 387 3174-1872 6063-5047 6450l-25241 3135c6059 8689 14391 15882 24121 21357 10880 6122 23478 10089 36610 11608 11624 1344 23648 768 35247-1931 4453-1079 8905-2461 13356-4145 13963-5499 26757-14461 36761-27283l-20663-2764c-3162-412-5391-3311-4979-6472 413-3162 3311-5391 6473-4979l26139 3496c3208-6178 5239-12705 5867-19650l-30965 10047c-3037 987-6300-674-7287-3711s674-6300 3711-7287l34251-11113c-1283-9693-5087-20263-11885-31875h0c-500-850-789-1840-793-2897l-217-37328-17444 16319c-1651 1733-4280 2319-6579 1268-16341-7440-32557-10881-48657-10742-16110 139-32210 3884-48298 10810l-3-8c-2060 884-4539 519-6266-1124zm46578 71252c-3200 0-5794-2594-5794-5794s2594-5794 5794-5794h17919c3200 0 5794 2594 5794 5794s-2594 5794-5794 5794h-3243c227 3400 821 6362 1717 8900 1339 3793 3344 6552 5762 8335 2359 1739 5181 2620 8210 2680 2325 46 4813-389 7360-1288 3012-1062 6316 519 7378 3530 1062 3012-519 6316-3530 7378-3817 1347-7681 1996-11434 1922-5413-108-10504-1718-14818-4898-2156-1589-4101-3552-5774-5893-1487 2409-3267 4324-5293 5835-6744 5029-15328 5057-24601 3750-3162-437-5371-3356-4934-6518s3356-5371 6518-4934c6622 934 12498 1103 16091-1577 3261-2431 5368-7591 5663-17222h-2991zm-25557-26394c4170 0 7551 3381 7551 7552 0 4170-3381 7551-7551 7551s-7551-3381-7551-7551 3381-7552 7551-7552z" stroke="#000" stroke-width="300"/></svg>