<svg xmlns="http://www.w3.org/2000/svg" width="64" height="64" shape-rendering="geometricPrecision" text-rendering="geometricPrecision" image-rendering="optimizeQuality" fill-rule="evenodd" clip-rule="evenodd" viewBox="0 0 640 640"><path d="M446.037 117.627c94.454-101.966 110.375-9.343 179.884 10.146 8.41 2.338 14.658 2.917 14.043 6.898-6.07 39.969-19.11 47.492-33.638 47.882-16.087.449-29.15.165-38.811 4.76-12.307 5.835-21.19 13.406-27.733 22.24l-98.777-50.374c3.213-11.729 4.961-25.465 5.032-41.552zm93.58 92.15zm-5.67 9.083a84.356 84.356 0 0 1 0 0zm-3.094 6.556zm-1.335 3.354c-21.024 56.032 7.028 139.372-87.048 170.081-5.681 47.717-5.433 95.47 1.252 143.175l11.421-1.216c20.6-2.197 20.398 16.5 10.666 28.547h-60.816c-4.417-57.19-15.472-119.8-10.866-174.392-32.044 8.575-51.343 6.295-86.15-6.957-16.89-6.425-86.565-48.083-105.45-31.134-10.643 9.579 17.751 47.788-52.371 115.68l1.252 67.122h11.858c17.965 0 16.996 17.953 10.488 29.682H139.1c-23.043 0-18.2 2.468-18.484-21.78l-.555-52.253-3.674-32.374c.071-19.276 13.902-39.804.674-85.726-8.729-30.378-8.032-54.567-30.875-57.934-21.213 42.769-41.504 81.923-59.316 126.757-1.204 3.036-2.881 5.906-4.346 8.859-20.303 46.76-28.82 11.634-17.445-16.134l7.606-18.52c9.733-39.201 37.182-112.773 63.084-140.07 97.607-102.957 295.42-5.586 353.72-94.701l100.03 43.288zm-99.757-43.701l.744-1.181c-.248.401-.496.791-.744 1.18zm2.965-4.985zm2.634-5.244zm2.362-5.586a112.31 112.31 0 0 0 1.228-3.378 87.101 87.101 0 0 1-1.228 3.378zm2.114-6.095z"/></svg>