<svg xmlns="http://www.w3.org/2000/svg"  viewBox="0 0 333333 333333" shape-rendering="geometricPrecision" text-rendering="geometricPrecision" image-rendering="optimizeQuality" fill-rule="evenodd" clip-rule="evenodd"><path d="M301857 53167l26741 12084c5191 2345 7419 2815-194 5102l-24216 7274c-234 1281-487 2578-744 3895-1026 5257-2124 10877-2078 16678 21 2681 251 5393 637 8124 394 2790 933 5494 1567 8141 72 306 117 611 134 914h8c1835 33083-6494 58881-23997 78104-16393 18004-40709 29997-72138 36593l4544 26984h22168c3348 0 6063 2715 6063 6063s-2715 6063-6063 6063h-44606c-3348 0-6063-2715-6063-6063s2715-6063 6063-6063h10166l-4376-25987c-12172-291-23734 89-34670 1157-12452 1217-24119 3336-34979 6385-36039 10116-53198 27424-76252 50680l-313 316c-1420 1432-2756 2903-3934 4199-7337 8074-9969 10969-24374 5822-2151-769-4167-1711-6056-2817-1864-1091-3549-2335-5063-3720-3402-3113-5837-6858-7441-11142-1531-4088-2285-8643-2390-13585-40-2040 1106-3828 2804-4705l-3-5c17681-9160 34172-19913 49466-32267 15268-12332 29359-26286 42264-41869l92-109c16625-21533 41662-44219 65488-65806 25867-23437 50275-45552 59957-62643 4060-12274 11606-20391 20622-25043 5596-2887 11732-4406 17926-4730 6092-319 12265 531 18041 2379 10700 3422 20081 10307 25198 19595zm-33702 908c4365 0 7905 3539 7905 7904s-3539 7904-7905 7904c-4365 0-7904-3539-7904-7904s3539-7904 7904-7904zM100981 197998c16495-902 35742-3196 48804-8374 22757-9022 39569-31050 56047-50641 2537-3016 16772-20347 20836-16998 975 803 488 3391-1849 8236-19980 27120-34518 51413-60044 65656-23300 13001-49595 13694-75240 15007-9663 10297-19921 19826-30770 28589-14965 12087-31043 22696-48226 31835 254 2557 761 4911 1556 7033 1037 2770 2583 5165 4721 7122 960 879 2063 1688 3316 2421 1229 719 2662 1376 4310 1965 7899 2823 9301 1280 13209-3021 1163-1280 2482-2732 4259-4524l314-316c24158-24370 42139-42507 80798-53359 11395-3198 23673-5427 36806-6710 12853-1255 26502-1596 40924-1048 31563-5926 55628-17170 71290-34371 15519-17044 22922-40211 21338-70153-679-2889-1246-5760-1648-8602-433-3069-693-6216-718-9463-54-6991 1131-13065 2241-18749 1533-7853 2897-14841-174-20793-3709-7188-11050-12585-19548-15303-4596-1470-9519-2146-14387-1891-4767 249-9460 1404-13704 3593-6829 3524-12568 9819-15664 19472l-6 21-4 12c-103 318-237 631-406 934-10326 18607-35557 41467-62307 65704-23462 21257-48117 43597-64239 64481-88 129-183 255-284 378-515 622-1032 1240-1550 1857z"/></svg>